<svg width="1440" height="900" viewBox="0 0 1440 900" fill="none" xmlns="http://www.w3.org/2000/svg">
<rect width="1440" height="900" fill="#FCFCFC"/>
<path d="M1440 430C1396.87 408.717 1353.74 387.579 1301.36 371.798C1248.98 356.162 1187.47 346.027 1166.36 304.04C1145.25 262.054 1164.41 188.36 1152.29 132.475C1140.17 76.4444 1096.52 38.2222 1053 0H1440V430Z" fill="#071F26"/>
<path d="M0 543.333C41.503 548.617 83.0061 554.021 122.888 570.474C162.662 586.926 200.814 614.547 223.943 651.174C246.965 687.801 254.963 733.435 268.581 776.428C282.307 819.3 301.654 859.65 321 900H0V543.333Z" fill="#071F26"/>
</svg>
